<svg xmlns="http://www.w3.org/2000/svg" width="100" height="58" viewBox="0 0 100 58" fill="none"><path d="M0.00509437 50.989C0.101887 50.9738 0.196133 50.9409 0.292926 50.9409C16.195 50.9409 32.0945 50.9409 47.9966 50.9409H48.2641C48.1902 51.0321 48.1495 51.0929 48.096 51.1461C46.4963 52.7756 44.9069 54.4177 43.292 56.0319C42.026 57.2964 40.4824 57.9781 38.6841 57.9883C34.3233 58.006 29.9626 57.9984 25.5992 57.9984C17.1935 57.9984 8.79034 57.9984 0.384625 57.9984C0.257266 57.9984 0.129907 57.9933 0.00254719 57.9908C0.00254719 55.6594 0.00254719 53.3255 0.00254719 50.9941L0.00509437 50.989Z" fill="#C2986B"></path><path d="M53.1088 0C52.5052 0.587916 51.9066 1.17837 51.3003 1.76375C45.345 7.5238 39.3897 13.2813 33.4344 19.0388C33.358 19.1123 33.2612 19.163 33.1746 19.2238C33.1924 19.2542 33.2102 19.2821 33.2255 19.3125C33.3299 19.3125 33.4344 19.3125 33.5388 19.3125C37.3545 19.3125 41.1727 19.2973 44.9884 19.3176C50.9234 19.348 56.2521 23.6231 57.5792 29.378C57.839 30.5032 57.895 31.6435 57.9536 32.789C58.0759 35.1862 59.8844 37.325 62.2405 37.8547C62.6888 37.956 63.1549 38.0169 63.6134 38.0169C68.8836 38.027 74.1537 38.0245 79.4238 38.0245C79.513 38.0245 79.6021 38.0245 79.7168 38.0245C79.7168 37.8927 79.7168 37.7863 79.7168 37.6798C79.7168 33.866 79.7269 30.0496 79.7117 26.2357C79.704 24.2312 80.4045 22.541 81.836 21.1346C83.3669 19.6293 84.8824 18.1063 86.4057 16.5909C86.4744 16.5225 86.5483 16.454 86.6527 16.3552C86.6655 16.4566 86.6782 16.5225 86.6782 16.5858C86.6782 23.6003 86.6909 30.6172 86.6731 37.6317C86.6655 41.0071 84.452 43.6933 81.1508 44.3851C80.6745 44.4839 80.1778 44.5194 79.6913 44.5194C74.0212 44.5295 68.3512 44.5752 62.6812 44.5093C57.7626 44.4535 54.1481 42.1728 51.8276 37.8572C51.7945 37.7964 51.7614 37.7381 51.6952 37.6165C51.6875 37.771 51.6799 37.8572 51.6799 37.9408C51.6799 38.9342 51.6799 39.9301 51.6799 40.9235C51.6748 42.9483 50.1057 44.5219 48.0756 44.5219C32.1455 44.5219 16.2179 44.5219 0.287832 44.5219C0.191039 44.5219 0.0967931 44.4915 0 44.4738C0 40.0442 0 35.6145 0 31.1849C0.0152831 31.0784 0.0382078 30.972 0.0433022 30.8656C0.168114 28.8307 0.962837 27.0999 2.40964 25.6605C3.8488 24.2287 5.28796 22.7969 6.72712 21.3652C8.32166 19.7763 10.255 18.9983 12.5016 18.9882C14.6743 18.978 16.8445 18.9882 19.0173 18.9882C19.1039 18.9882 19.1905 18.9882 19.3433 18.9882C19.2414 19.0997 19.1854 19.1655 19.1243 19.2238C16.898 21.4057 14.6718 23.5876 12.4379 25.7644C12.3488 25.8531 12.1883 25.9114 12.0635 25.9114C10.5377 25.9215 9.0094 25.919 7.48363 25.919H7.19325V37.472H51.6289C51.5907 37.3732 51.5525 37.2921 51.527 37.2085C51.3233 36.5927 51.0991 35.982 50.9259 35.3586C50.5897 34.1346 50.5846 32.8777 50.5871 31.6207C50.5871 31.1545 50.5566 30.6755 50.4496 30.2244C49.9019 27.9032 47.9151 26.3523 45.5131 26.3498C40.8416 26.3447 36.1726 26.3548 31.5011 26.3422C30.9687 26.3422 30.4261 26.2966 29.9065 26.1825C26.5773 25.4552 24.7994 22.1811 25.2732 19.3252C25.4948 17.9846 26.1214 16.8646 27.0893 15.9193C31.8857 11.2312 36.6795 6.54056 41.4733 1.84991C42.1126 1.24172 42.7291 0.618325 43.3506 0C46.6033 0 49.8561 0 53.1088 0Z" fill="#5F7760"></path><path d="M100 46.4327C99.893 46.9243 99.8115 47.421 99.6765 47.905C99.3224 49.1746 98.6678 50.2769 97.7355 51.212C96.2251 52.7249 94.7171 54.2403 93.1863 55.7354C91.6529 57.2331 89.7934 57.9883 87.6436 57.9933C83.2828 58.0009 78.922 57.9959 74.5612 57.9959C74.5154 57.9959 74.4721 57.9908 74.388 57.9857C74.4441 57.9148 74.4797 57.859 74.5256 57.8134C76.7213 55.5758 78.9195 53.3407 81.1101 51.1005C81.24 50.9662 81.3724 50.9409 81.5431 50.9409C85.2594 50.9434 88.9732 50.9409 92.6896 50.9409C92.7965 50.9409 92.9035 50.9409 93.0411 50.9409V50.5684C93.0411 42.4972 93.0487 34.426 93.036 26.3548C93.0334 24.2743 93.7314 22.5207 95.2393 21.0661C96.7702 19.5862 98.2628 18.0683 99.7733 16.5655C99.8421 16.4971 99.9236 16.4414 100 16.3805V46.4327Z" fill="#5F7760"></path><path d="M99.7809 0C99.4243 0.369981 99.0728 0.745031 98.7111 1.10994C97.3942 2.43275 96.0722 3.7505 94.7502 5.07077C94.0752 5.74485 93.2958 6.26181 92.4043 6.60898C92.3533 6.62926 92.3024 6.64699 92.254 6.67234C92.2413 6.6774 92.2362 6.69768 92.2183 6.72555H99.7886C99.7122 6.81425 99.6689 6.87507 99.6154 6.92828C97.9877 8.55519 96.3626 10.1872 94.7299 11.809C93.4283 13.1014 91.8515 13.7729 90.015 13.7755C83.3465 13.7831 76.6779 13.778 70.0094 13.7805C69.9483 13.7805 69.8872 13.7805 69.7674 13.7805C69.8566 13.6792 69.9075 13.6133 69.9687 13.555C72.1796 11.3453 74.3931 9.13803 76.6015 6.92575C76.7391 6.78637 76.8741 6.72555 77.0728 6.72555C78.8711 6.73315 80.6694 6.73315 82.4703 6.72555C82.59 6.72555 82.7454 6.6774 82.8269 6.59631C85.0073 4.43217 87.1826 2.26297 89.3553 0.0912283C89.3808 0.0658871 89.3986 0.0354777 89.4215 0.00506824C92.8755 0.00506824 96.327 0.00506824 99.7809 0.00506824V0Z" fill="#5F7760"></path><path d="M76.3214 50.9383C75.6234 51.658 74.9815 52.322 74.3396 52.9834C73.3793 53.9717 72.4267 54.965 71.4588 55.9432C70.1673 57.2534 68.5983 57.973 66.749 57.9806C62.052 57.9984 57.3576 57.9882 52.6605 57.9908C50.6075 57.9908 48.5545 57.9908 46.5014 57.9908H46.1576C46.2544 57.8818 46.3104 57.8159 46.369 57.7551C48.5392 55.5454 50.7119 53.3356 52.8796 51.1233C52.9993 51.0017 53.1139 50.9333 53.2999 50.9333C60.8676 50.9383 68.4327 50.9383 76.0004 50.9383C76.0794 50.9383 76.1583 50.9383 76.3188 50.9383H76.3214Z" fill="#5F7760"></path></svg>